<svg xmlns="http://www.w3.org/2000/svg" xmlns:xlink="http://www.w3.org/1999/xlink" width="150" zoomAndPan="magnify" viewBox="0 0 112.5 37.5" height="50" preserveAspectRatio="xMidYMid meet" version="1.0"><defs><g/></defs><g fill="#d32f23" fill-opacity="0.4196"><g transform="translate(5.808581, 27.060212)"><g><path d="M 4.15625 0.15625 C 3.007812 0.15625 2.101562 -0.140625 1.4375 -0.734375 C 0.769531 -1.328125 0.4375 -2.113281 0.4375 -3.09375 C 0.4375 -3.1875 0.453125 -3.351562 0.484375 -3.59375 L 0.5625 -4.21875 C 0.570312 -4.3125 0.609375 -4.382812 0.671875 -4.4375 C 0.734375 -4.488281 0.800781 -4.515625 0.875 -4.515625 L 3.921875 -4.515625 C 3.992188 -4.515625 4.050781 -4.488281 4.09375 -4.4375 C 4.144531 -4.382812 4.164062 -4.3125 4.15625 -4.21875 L 4.109375 -3.78125 C 4.085938 -3.5625 4.113281 -3.382812 4.1875 -3.25 C 4.269531 -3.125 4.394531 -3.0625 4.5625 -3.0625 C 4.726562 -3.0625 4.867188 -3.132812 4.984375 -3.28125 C 5.109375 -3.425781 5.171875 -3.601562 5.171875 -3.8125 C 5.171875 -4.007812 5.070312 -4.210938 4.875 -4.421875 C 4.6875 -4.640625 4.320312 -4.972656 3.78125 -5.421875 C 3.25 -5.859375 2.804688 -6.242188 2.453125 -6.578125 C 2.109375 -6.921875 1.804688 -7.34375 1.546875 -7.84375 C 1.296875 -8.34375 1.171875 -8.910156 1.171875 -9.546875 C 1.171875 -9.671875 1.1875 -9.878906 1.21875 -10.171875 C 1.363281 -11.359375 1.851562 -12.316406 2.6875 -13.046875 C 3.53125 -13.785156 4.578125 -14.15625 5.828125 -14.15625 C 6.972656 -14.15625 7.875 -13.847656 8.53125 -13.234375 C 9.195312 -12.617188 9.53125 -11.789062 9.53125 -10.75 C 9.53125 -10.632812 9.519531 -10.441406 9.5 -10.171875 L 9.4375 -9.734375 C 9.414062 -9.640625 9.375 -9.566406 9.3125 -9.515625 C 9.257812 -9.460938 9.191406 -9.4375 9.109375 -9.4375 L 6.09375 -9.4375 C 6.007812 -9.4375 5.941406 -9.460938 5.890625 -9.515625 C 5.847656 -9.566406 5.835938 -9.640625 5.859375 -9.734375 L 5.921875 -10.25 C 5.929688 -10.445312 5.890625 -10.609375 5.796875 -10.734375 C 5.710938 -10.867188 5.59375 -10.9375 5.4375 -10.9375 C 5.25 -10.9375 5.09375 -10.851562 4.96875 -10.6875 C 4.851562 -10.53125 4.796875 -10.316406 4.796875 -10.046875 C 4.796875 -9.828125 4.890625 -9.597656 5.078125 -9.359375 C 5.265625 -9.117188 5.609375 -8.785156 6.109375 -8.359375 C 6.796875 -7.785156 7.316406 -7.320312 7.671875 -6.96875 C 8.035156 -6.613281 8.316406 -6.222656 8.515625 -5.796875 C 8.722656 -5.378906 8.828125 -4.90625 8.828125 -4.375 C 8.828125 -4.269531 8.816406 -4.082031 8.796875 -3.8125 C 8.628906 -2.601562 8.125 -1.640625 7.28125 -0.921875 C 6.4375 -0.203125 5.394531 0.15625 4.15625 0.15625 Z M 4.15625 0.15625 "/></g></g></g><g fill="#d32f23" fill-opacity="0.4196"><g transform="translate(14.776307, 27.060212)"><g><path d="M 6.453125 -13.984375 C 7.515625 -13.984375 8.351562 -13.640625 8.96875 -12.953125 C 9.59375 -12.273438 9.90625 -11.367188 9.90625 -10.234375 C 9.90625 -9.910156 9.894531 -9.664062 9.875 -9.5 C 9.769531 -8.644531 9.519531 -7.890625 9.125 -7.234375 C 8.726562 -6.578125 8.21875 -6.070312 7.59375 -5.71875 C 6.976562 -5.375 6.300781 -5.203125 5.5625 -5.203125 L 4.453125 -5.203125 C 4.390625 -5.203125 4.359375 -5.164062 4.359375 -5.09375 L 3.75 -0.296875 C 3.738281 -0.203125 3.703125 -0.128906 3.640625 -0.078125 C 3.585938 -0.0234375 3.519531 0 3.4375 0 L 0.359375 0 C 0.273438 0 0.207031 -0.0234375 0.15625 -0.078125 C 0.113281 -0.128906 0.101562 -0.203125 0.125 -0.296875 L 1.765625 -13.6875 C 1.773438 -13.78125 1.804688 -13.851562 1.859375 -13.90625 C 1.921875 -13.957031 1.992188 -13.984375 2.078125 -13.984375 Z M 5.078125 -8.09375 C 5.367188 -8.09375 5.617188 -8.203125 5.828125 -8.421875 C 6.035156 -8.640625 6.164062 -8.96875 6.21875 -9.40625 C 6.226562 -9.488281 6.234375 -9.601562 6.234375 -9.75 C 6.234375 -10.082031 6.160156 -10.332031 6.015625 -10.5 C 5.867188 -10.675781 5.671875 -10.765625 5.421875 -10.765625 L 5.140625 -10.765625 C 5.066406 -10.765625 5.03125 -10.734375 5.03125 -10.671875 L 4.734375 -8.1875 C 4.710938 -8.125 4.738281 -8.09375 4.8125 -8.09375 Z M 5.078125 -8.09375 "/></g></g></g><g fill="#d32f23" fill-opacity="0.4196"><g transform="translate(24.103536, 27.060212)"><g><path d="M 4.28125 0.15625 C 3.09375 0.15625 2.15625 -0.164062 1.46875 -0.8125 C 0.789062 -1.457031 0.453125 -2.332031 0.453125 -3.4375 C 0.453125 -3.570312 0.46875 -3.796875 0.5 -4.109375 L 1.21875 -9.875 C 1.375 -11.175781 1.890625 -12.210938 2.765625 -12.984375 C 3.640625 -13.765625 4.726562 -14.15625 6.03125 -14.15625 C 7.207031 -14.15625 8.140625 -13.828125 8.828125 -13.171875 C 9.515625 -12.523438 9.859375 -11.648438 9.859375 -10.546875 C 9.859375 -10.421875 9.84375 -10.195312 9.8125 -9.875 L 9.109375 -4.109375 C 8.953125 -2.804688 8.429688 -1.769531 7.546875 -1 C 6.671875 -0.226562 5.582031 0.15625 4.28125 0.15625 Z M 4.671875 -3.0625 C 4.867188 -3.0625 5.035156 -3.140625 5.171875 -3.296875 C 5.316406 -3.453125 5.410156 -3.671875 5.453125 -3.953125 L 6.1875 -10.03125 C 6.21875 -10.3125 6.1875 -10.53125 6.09375 -10.6875 C 6 -10.851562 5.851562 -10.9375 5.65625 -10.9375 C 5.4375 -10.9375 5.257812 -10.851562 5.125 -10.6875 C 4.988281 -10.53125 4.90625 -10.3125 4.875 -10.03125 L 4.140625 -3.953125 C 4.117188 -3.898438 4.109375 -3.828125 4.109375 -3.734375 C 4.109375 -3.523438 4.160156 -3.359375 4.265625 -3.234375 C 4.367188 -3.117188 4.503906 -3.0625 4.671875 -3.0625 Z M 4.671875 -3.0625 "/></g></g></g><g fill="#d32f23" fill-opacity="0.4196"><g transform="translate(33.470714, 27.060212)"><g><path d="M 7.421875 -13.6875 C 7.429688 -13.78125 7.460938 -13.851562 7.515625 -13.90625 C 7.578125 -13.957031 7.65625 -13.984375 7.75 -13.984375 L 10.765625 -13.984375 C 10.859375 -13.984375 10.925781 -13.957031 10.96875 -13.90625 C 11.019531 -13.851562 11.039062 -13.78125 11.03125 -13.6875 L 9.375 -0.296875 C 9.363281 -0.203125 9.328125 -0.128906 9.265625 -0.078125 C 9.210938 -0.0234375 9.140625 0 9.046875 0 L 5.59375 0 C 5.4375 0 5.34375 -0.0859375 5.3125 -0.265625 L 4.5625 -6.390625 C 4.5625 -6.429688 4.546875 -6.453125 4.515625 -6.453125 C 4.484375 -6.453125 4.46875 -6.429688 4.46875 -6.390625 L 3.75 -0.296875 C 3.738281 -0.203125 3.703125 -0.128906 3.640625 -0.078125 C 3.585938 -0.0234375 3.519531 0 3.4375 0 L 0.40625 0 C 0.320312 0 0.253906 -0.0234375 0.203125 -0.078125 C 0.160156 -0.128906 0.144531 -0.203125 0.15625 -0.296875 L 1.796875 -13.6875 C 1.804688 -13.78125 1.84375 -13.851562 1.90625 -13.90625 C 1.96875 -13.957031 2.039062 -13.984375 2.125 -13.984375 L 5.53125 -13.984375 C 5.695312 -13.984375 5.789062 -13.898438 5.8125 -13.734375 L 6.59375 -7.546875 C 6.59375 -7.515625 6.601562 -7.503906 6.625 -7.515625 C 6.65625 -7.523438 6.675781 -7.546875 6.6875 -7.578125 Z M 7.421875 -13.6875 "/></g></g></g><g fill="#d32f23" fill-opacity="0.4196"><g transform="translate(43.696717, 27.060212)"><g><path d="M 4.15625 0.15625 C 3.007812 0.15625 2.101562 -0.140625 1.4375 -0.734375 C 0.769531 -1.328125 0.4375 -2.113281 0.4375 -3.09375 C 0.4375 -3.1875 0.453125 -3.351562 0.484375 -3.59375 L 0.5625 -4.21875 C 0.570312 -4.3125 0.609375 -4.382812 0.671875 -4.4375 C 0.734375 -4.488281 0.800781 -4.515625 0.875 -4.515625 L 3.921875 -4.515625 C 3.992188 -4.515625 4.050781 -4.488281 4.09375 -4.4375 C 4.144531 -4.382812 4.164062 -4.3125 4.15625 -4.21875 L 4.109375 -3.78125 C 4.085938 -3.5625 4.113281 -3.382812 4.1875 -3.25 C 4.269531 -3.125 4.394531 -3.0625 4.5625 -3.0625 C 4.726562 -3.0625 4.867188 -3.132812 4.984375 -3.28125 C 5.109375 -3.425781 5.171875 -3.601562 5.171875 -3.8125 C 5.171875 -4.007812 5.070312 -4.210938 4.875 -4.421875 C 4.6875 -4.640625 4.320312 -4.972656 3.78125 -5.421875 C 3.25 -5.859375 2.804688 -6.242188 2.453125 -6.578125 C 2.109375 -6.921875 1.804688 -7.34375 1.546875 -7.84375 C 1.296875 -8.34375 1.171875 -8.910156 1.171875 -9.546875 C 1.171875 -9.671875 1.1875 -9.878906 1.21875 -10.171875 C 1.363281 -11.359375 1.851562 -12.316406 2.6875 -13.046875 C 3.53125 -13.785156 4.578125 -14.15625 5.828125 -14.15625 C 6.972656 -14.15625 7.875 -13.847656 8.53125 -13.234375 C 9.195312 -12.617188 9.53125 -11.789062 9.53125 -10.75 C 9.53125 -10.632812 9.519531 -10.441406 9.5 -10.171875 L 9.4375 -9.734375 C 9.414062 -9.640625 9.375 -9.566406 9.3125 -9.515625 C 9.257812 -9.460938 9.191406 -9.4375 9.109375 -9.4375 L 6.09375 -9.4375 C 6.007812 -9.4375 5.941406 -9.460938 5.890625 -9.515625 C 5.847656 -9.566406 5.835938 -9.640625 5.859375 -9.734375 L 5.921875 -10.25 C 5.929688 -10.445312 5.890625 -10.609375 5.796875 -10.734375 C 5.710938 -10.867188 5.59375 -10.9375 5.4375 -10.9375 C 5.25 -10.9375 5.09375 -10.851562 4.96875 -10.6875 C 4.851562 -10.53125 4.796875 -10.316406 4.796875 -10.046875 C 4.796875 -9.828125 4.890625 -9.597656 5.078125 -9.359375 C 5.265625 -9.117188 5.609375 -8.785156 6.109375 -8.359375 C 6.796875 -7.785156 7.316406 -7.320312 7.671875 -6.96875 C 8.035156 -6.613281 8.316406 -6.222656 8.515625 -5.796875 C 8.722656 -5.378906 8.828125 -4.90625 8.828125 -4.375 C 8.828125 -4.269531 8.816406 -4.082031 8.796875 -3.8125 C 8.628906 -2.601562 8.125 -1.640625 7.28125 -0.921875 C 6.4375 -0.203125 5.394531 0.15625 4.15625 0.15625 Z M 4.15625 0.15625 "/></g></g></g><g fill="#d32f23" fill-opacity="0.4196"><g transform="translate(52.664443, 27.060212)"><g/></g></g><g fill="#d32f23" fill-opacity="0.4196"><g transform="translate(56.539142, 27.060212)"><g><path d="M 4.15625 0.15625 C 3.007812 0.15625 2.101562 -0.140625 1.4375 -0.734375 C 0.769531 -1.328125 0.4375 -2.113281 0.4375 -3.09375 C 0.4375 -3.1875 0.453125 -3.351562 0.484375 -3.59375 L 0.5625 -4.21875 C 0.570312 -4.3125 0.609375 -4.382812 0.671875 -4.4375 C 0.734375 -4.488281 0.800781 -4.515625 0.875 -4.515625 L 3.921875 -4.515625 C 3.992188 -4.515625 4.050781 -4.488281 4.09375 -4.4375 C 4.144531 -4.382812 4.164062 -4.3125 4.15625 -4.21875 L 4.109375 -3.78125 C 4.085938 -3.5625 4.113281 -3.382812 4.1875 -3.25 C 4.269531 -3.125 4.394531 -3.0625 4.5625 -3.0625 C 4.726562 -3.0625 4.867188 -3.132812 4.984375 -3.28125 C 5.109375 -3.425781 5.171875 -3.601562 5.171875 -3.8125 C 5.171875 -4.007812 5.070312 -4.210938 4.875 -4.421875 C 4.6875 -4.640625 4.320312 -4.972656 3.78125 -5.421875 C 3.25 -5.859375 2.804688 -6.242188 2.453125 -6.578125 C 2.109375 -6.921875 1.804688 -7.34375 1.546875 -7.84375 C 1.296875 -8.34375 1.171875 -8.910156 1.171875 -9.546875 C 1.171875 -9.671875 1.1875 -9.878906 1.21875 -10.171875 C 1.363281 -11.359375 1.851562 -12.316406 2.6875 -13.046875 C 3.53125 -13.785156 4.578125 -14.15625 5.828125 -14.15625 C 6.972656 -14.15625 7.875 -13.847656 8.53125 -13.234375 C 9.195312 -12.617188 9.53125 -11.789062 9.53125 -10.75 C 9.53125 -10.632812 9.519531 -10.441406 9.5 -10.171875 L 9.4375 -9.734375 C 9.414062 -9.640625 9.375 -9.566406 9.3125 -9.515625 C 9.257812 -9.460938 9.191406 -9.4375 9.109375 -9.4375 L 6.09375 -9.4375 C 6.007812 -9.4375 5.941406 -9.460938 5.890625 -9.515625 C 5.847656 -9.566406 5.835938 -9.640625 5.859375 -9.734375 L 5.921875 -10.25 C 5.929688 -10.445312 5.890625 -10.609375 5.796875 -10.734375 C 5.710938 -10.867188 5.59375 -10.9375 5.4375 -10.9375 C 5.25 -10.9375 5.09375 -10.851562 4.96875 -10.6875 C 4.851562 -10.53125 4.796875 -10.316406 4.796875 -10.046875 C 4.796875 -9.828125 4.890625 -9.597656 5.078125 -9.359375 C 5.265625 -9.117188 5.609375 -8.785156 6.109375 -8.359375 C 6.796875 -7.785156 7.316406 -7.320312 7.671875 -6.96875 C 8.035156 -6.613281 8.316406 -6.222656 8.515625 -5.796875 C 8.722656 -5.378906 8.828125 -4.90625 8.828125 -4.375 C 8.828125 -4.269531 8.816406 -4.082031 8.796875 -3.8125 C 8.628906 -2.601562 8.125 -1.640625 7.28125 -0.921875 C 6.4375 -0.203125 5.394531 0.15625 4.15625 0.15625 Z M 4.15625 0.15625 "/></g></g></g><g fill="#d32f23" fill-opacity="0.4196"><g transform="translate(65.506868, 27.060212)"><g><path d="M 10.375 -13.984375 C 10.445312 -13.984375 10.503906 -13.957031 10.546875 -13.90625 C 10.597656 -13.851562 10.617188 -13.78125 10.609375 -13.6875 L 10.296875 -11.078125 C 10.273438 -10.984375 10.238281 -10.90625 10.1875 -10.84375 C 10.132812 -10.789062 10.0625 -10.765625 9.96875 -10.765625 L 7.65625 -10.765625 C 7.582031 -10.765625 7.546875 -10.734375 7.546875 -10.671875 L 6.28125 -0.296875 C 6.257812 -0.203125 6.222656 -0.128906 6.171875 -0.078125 C 6.117188 -0.0234375 6.046875 0 5.953125 0 L 2.890625 0 C 2.804688 0 2.738281 -0.0234375 2.6875 -0.078125 C 2.644531 -0.128906 2.628906 -0.203125 2.640625 -0.296875 L 3.921875 -10.671875 C 3.921875 -10.734375 3.882812 -10.765625 3.8125 -10.765625 L 1.578125 -10.765625 C 1.484375 -10.765625 1.410156 -10.789062 1.359375 -10.84375 C 1.316406 -10.90625 1.300781 -10.984375 1.3125 -11.078125 L 1.640625 -13.6875 C 1.648438 -13.78125 1.6875 -13.851562 1.75 -13.90625 C 1.8125 -13.957031 1.890625 -13.984375 1.984375 -13.984375 Z M 10.375 -13.984375 "/></g></g></g><g fill="#d32f23" fill-opacity="0.4196"><g transform="translate(75.173642, 27.060212)"><g><path d="M 4.25 0.15625 C 3.101562 0.15625 2.195312 -0.164062 1.53125 -0.8125 C 0.875 -1.46875 0.546875 -2.347656 0.546875 -3.453125 C 0.546875 -3.597656 0.554688 -3.832031 0.578125 -4.15625 L 1.765625 -13.6875 C 1.773438 -13.78125 1.804688 -13.851562 1.859375 -13.90625 C 1.921875 -13.957031 1.992188 -13.984375 2.078125 -13.984375 L 5.15625 -13.984375 C 5.238281 -13.984375 5.300781 -13.957031 5.34375 -13.90625 C 5.394531 -13.851562 5.410156 -13.78125 5.390625 -13.6875 L 4.203125 -3.796875 C 4.171875 -3.566406 4.191406 -3.382812 4.265625 -3.25 C 4.347656 -3.125 4.476562 -3.0625 4.65625 -3.0625 C 4.832031 -3.0625 4.972656 -3.125 5.078125 -3.25 C 5.191406 -3.382812 5.265625 -3.566406 5.296875 -3.796875 L 6.515625 -13.6875 C 6.523438 -13.78125 6.554688 -13.851562 6.609375 -13.90625 C 6.660156 -13.957031 6.734375 -13.984375 6.828125 -13.984375 L 9.890625 -13.984375 C 9.984375 -13.984375 10.050781 -13.957031 10.09375 -13.90625 C 10.144531 -13.851562 10.164062 -13.78125 10.15625 -13.6875 L 8.96875 -4.15625 C 8.863281 -3.300781 8.597656 -2.546875 8.171875 -1.890625 C 7.742188 -1.242188 7.191406 -0.738281 6.515625 -0.375 C 5.835938 -0.0195312 5.082031 0.15625 4.25 0.15625 Z M 4.25 0.15625 "/></g></g></g><g fill="#d32f23" fill-opacity="0.4196"><g transform="translate(84.500871, 27.060212)"><g><path d="M 0.40625 0 C 0.320312 0 0.253906 -0.0234375 0.203125 -0.078125 C 0.160156 -0.128906 0.144531 -0.203125 0.15625 -0.296875 L 1.796875 -13.6875 C 1.804688 -13.78125 1.84375 -13.851562 1.90625 -13.90625 C 1.96875 -13.957031 2.039062 -13.984375 2.125 -13.984375 L 5.9375 -13.984375 C 7.125 -13.984375 8.066406 -13.671875 8.765625 -13.046875 C 9.460938 -12.429688 9.8125 -11.609375 9.8125 -10.578125 C 9.8125 -10.453125 9.796875 -10.257812 9.765625 -10 L 9.03125 -4 C 8.9375 -3.207031 8.671875 -2.507812 8.234375 -1.90625 C 7.804688 -1.300781 7.242188 -0.832031 6.546875 -0.5 C 5.847656 -0.164062 5.070312 0 4.21875 0 Z M 4.171875 -3.3125 C 4.148438 -3.25 4.175781 -3.21875 4.25 -3.21875 L 4.53125 -3.234375 C 4.75 -3.242188 4.941406 -3.34375 5.109375 -3.53125 C 5.273438 -3.71875 5.382812 -3.957031 5.4375 -4.25 L 6.09375 -9.75 L 6.109375 -9.96875 C 6.109375 -10.226562 6.046875 -10.425781 5.921875 -10.5625 C 5.804688 -10.695312 5.648438 -10.765625 5.453125 -10.765625 L 5.171875 -10.765625 C 5.109375 -10.765625 5.078125 -10.734375 5.078125 -10.671875 Z M 4.171875 -3.3125 "/></g></g></g><g fill="#d32f23" fill-opacity="0.4196"><g transform="translate(93.868049, 27.060212)"><g><path d="M 0.40625 0 C 0.320312 0 0.253906 -0.0234375 0.203125 -0.078125 C 0.160156 -0.128906 0.144531 -0.203125 0.15625 -0.296875 L 1.796875 -13.6875 C 1.804688 -13.78125 1.84375 -13.851562 1.90625 -13.90625 C 1.96875 -13.957031 2.039062 -13.984375 2.125 -13.984375 L 5.203125 -13.984375 C 5.273438 -13.984375 5.332031 -13.957031 5.375 -13.90625 C 5.425781 -13.851562 5.445312 -13.78125 5.4375 -13.6875 L 3.796875 -0.296875 C 3.785156 -0.203125 3.75 -0.128906 3.6875 -0.078125 C 3.625 -0.0234375 3.554688 0 3.484375 0 Z M 0.40625 0 "/></g></g></g><g fill="#d32f23" fill-opacity="0.4196"><g transform="translate(98.521677, 27.060212)"><g><path d="M 4.28125 0.15625 C 3.09375 0.15625 2.15625 -0.164062 1.46875 -0.8125 C 0.789062 -1.457031 0.453125 -2.332031 0.453125 -3.4375 C 0.453125 -3.570312 0.46875 -3.796875 0.5 -4.109375 L 1.21875 -9.875 C 1.375 -11.175781 1.890625 -12.210938 2.765625 -12.984375 C 3.640625 -13.765625 4.726562 -14.15625 6.03125 -14.15625 C 7.207031 -14.15625 8.140625 -13.828125 8.828125 -13.171875 C 9.515625 -12.523438 9.859375 -11.648438 9.859375 -10.546875 C 9.859375 -10.421875 9.84375 -10.195312 9.8125 -9.875 L 9.109375 -4.109375 C 8.953125 -2.804688 8.429688 -1.769531 7.546875 -1 C 6.671875 -0.226562 5.582031 0.15625 4.28125 0.15625 Z M 4.671875 -3.0625 C 4.867188 -3.0625 5.035156 -3.140625 5.171875 -3.296875 C 5.316406 -3.453125 5.410156 -3.671875 5.453125 -3.953125 L 6.1875 -10.03125 C 6.21875 -10.3125 6.1875 -10.53125 6.09375 -10.6875 C 6 -10.851562 5.851562 -10.9375 5.65625 -10.9375 C 5.4375 -10.9375 5.257812 -10.851562 5.125 -10.6875 C 4.988281 -10.53125 4.90625 -10.3125 4.875 -10.03125 L 4.140625 -3.953125 C 4.117188 -3.898438 4.109375 -3.828125 4.109375 -3.734375 C 4.109375 -3.523438 4.160156 -3.359375 4.265625 -3.234375 C 4.367188 -3.117188 4.503906 -3.0625 4.671875 -3.0625 Z M 4.671875 -3.0625 "/></g></g></g><g fill="#ff3847" fill-opacity="1"><g transform="translate(5.214173, 26.525004)"><g><path d="M 4.15625 0.15625 C 3.007812 0.15625 2.101562 -0.140625 1.4375 -0.734375 C 0.769531 -1.328125 0.4375 -2.113281 0.4375 -3.09375 C 0.4375 -3.1875 0.453125 -3.351562 0.484375 -3.59375 L 0.5625 -4.21875 C 0.570312 -4.3125 0.609375 -4.382812 0.671875 -4.4375 C 0.734375 -4.488281 0.800781 -4.515625 0.875 -4.515625 L 3.921875 -4.515625 C 3.992188 -4.515625 4.050781 -4.488281 4.09375 -4.4375 C 4.144531 -4.382812 4.164062 -4.3125 4.15625 -4.21875 L 4.109375 -3.78125 C 4.085938 -3.5625 4.113281 -3.382812 4.1875 -3.25 C 4.269531 -3.125 4.394531 -3.0625 4.5625 -3.0625 C 4.726562 -3.0625 4.867188 -3.132812 4.984375 -3.28125 C 5.109375 -3.425781 5.171875 -3.601562 5.171875 -3.8125 C 5.171875 -4.007812 5.070312 -4.210938 4.875 -4.421875 C 4.6875 -4.640625 4.320312 -4.972656 3.78125 -5.421875 C 3.25 -5.859375 2.804688 -6.242188 2.453125 -6.578125 C 2.109375 -6.921875 1.804688 -7.34375 1.546875 -7.84375 C 1.296875 -8.34375 1.171875 -8.910156 1.171875 -9.546875 C 1.171875 -9.671875 1.1875 -9.878906 1.21875 -10.171875 C 1.363281 -11.359375 1.851562 -12.316406 2.6875 -13.046875 C 3.53125 -13.785156 4.578125 -14.15625 5.828125 -14.15625 C 6.972656 -14.15625 7.875 -13.847656 8.53125 -13.234375 C 9.195312 -12.617188 9.53125 -11.789062 9.53125 -10.75 C 9.53125 -10.632812 9.519531 -10.441406 9.5 -10.171875 L 9.4375 -9.734375 C 9.414062 -9.640625 9.375 -9.566406 9.3125 -9.515625 C 9.257812 -9.460938 9.191406 -9.4375 9.109375 -9.4375 L 6.09375 -9.4375 C 6.007812 -9.4375 5.941406 -9.460938 5.890625 -9.515625 C 5.847656 -9.566406 5.835938 -9.640625 5.859375 -9.734375 L 5.921875 -10.25 C 5.929688 -10.445312 5.890625 -10.609375 5.796875 -10.734375 C 5.710938 -10.867188 5.59375 -10.9375 5.4375 -10.9375 C 5.25 -10.9375 5.09375 -10.851562 4.96875 -10.6875 C 4.851562 -10.53125 4.796875 -10.316406 4.796875 -10.046875 C 4.796875 -9.828125 4.890625 -9.597656 5.078125 -9.359375 C 5.265625 -9.117188 5.609375 -8.785156 6.109375 -8.359375 C 6.796875 -7.785156 7.316406 -7.320312 7.671875 -6.96875 C 8.035156 -6.613281 8.316406 -6.222656 8.515625 -5.796875 C 8.722656 -5.378906 8.828125 -4.90625 8.828125 -4.375 C 8.828125 -4.269531 8.816406 -4.082031 8.796875 -3.8125 C 8.628906 -2.601562 8.125 -1.640625 7.28125 -0.921875 C 6.4375 -0.203125 5.394531 0.15625 4.15625 0.15625 Z M 4.15625 0.15625 "/></g></g></g><g fill="#ff3847" fill-opacity="1"><g transform="translate(14.181899, 26.525004)"><g><path d="M 6.453125 -13.984375 C 7.515625 -13.984375 8.351562 -13.640625 8.96875 -12.953125 C 9.59375 -12.273438 9.90625 -11.367188 9.90625 -10.234375 C 9.90625 -9.910156 9.894531 -9.664062 9.875 -9.5 C 9.769531 -8.644531 9.519531 -7.890625 9.125 -7.234375 C 8.726562 -6.578125 8.21875 -6.070312 7.59375 -5.71875 C 6.976562 -5.375 6.300781 -5.203125 5.5625 -5.203125 L 4.453125 -5.203125 C 4.390625 -5.203125 4.359375 -5.164062 4.359375 -5.09375 L 3.75 -0.296875 C 3.738281 -0.203125 3.703125 -0.128906 3.640625 -0.078125 C 3.585938 -0.0234375 3.519531 0 3.4375 0 L 0.359375 0 C 0.273438 0 0.207031 -0.0234375 0.15625 -0.078125 C 0.113281 -0.128906 0.101562 -0.203125 0.125 -0.296875 L 1.765625 -13.6875 C 1.773438 -13.78125 1.804688 -13.851562 1.859375 -13.90625 C 1.921875 -13.957031 1.992188 -13.984375 2.078125 -13.984375 Z M 5.078125 -8.09375 C 5.367188 -8.09375 5.617188 -8.203125 5.828125 -8.421875 C 6.035156 -8.640625 6.164062 -8.96875 6.21875 -9.40625 C 6.226562 -9.488281 6.234375 -9.601562 6.234375 -9.75 C 6.234375 -10.082031 6.160156 -10.332031 6.015625 -10.5 C 5.867188 -10.675781 5.671875 -10.765625 5.421875 -10.765625 L 5.140625 -10.765625 C 5.066406 -10.765625 5.03125 -10.734375 5.03125 -10.671875 L 4.734375 -8.1875 C 4.710938 -8.125 4.738281 -8.09375 4.8125 -8.09375 Z M 5.078125 -8.09375 "/></g></g></g><g fill="#ff3847" fill-opacity="1"><g transform="translate(23.509129, 26.525004)"><g><path d="M 4.28125 0.15625 C 3.09375 0.15625 2.15625 -0.164062 1.46875 -0.8125 C 0.789062 -1.457031 0.453125 -2.332031 0.453125 -3.4375 C 0.453125 -3.570312 0.46875 -3.796875 0.5 -4.109375 L 1.21875 -9.875 C 1.375 -11.175781 1.890625 -12.210938 2.765625 -12.984375 C 3.640625 -13.765625 4.726562 -14.15625 6.03125 -14.15625 C 7.207031 -14.15625 8.140625 -13.828125 8.828125 -13.171875 C 9.515625 -12.523438 9.859375 -11.648438 9.859375 -10.546875 C 9.859375 -10.421875 9.84375 -10.195312 9.8125 -9.875 L 9.109375 -4.109375 C 8.953125 -2.804688 8.429688 -1.769531 7.546875 -1 C 6.671875 -0.226562 5.582031 0.15625 4.28125 0.15625 Z M 4.671875 -3.0625 C 4.867188 -3.0625 5.035156 -3.140625 5.171875 -3.296875 C 5.316406 -3.453125 5.410156 -3.671875 5.453125 -3.953125 L 6.1875 -10.03125 C 6.21875 -10.3125 6.1875 -10.53125 6.09375 -10.6875 C 6 -10.851562 5.851562 -10.9375 5.65625 -10.9375 C 5.4375 -10.9375 5.257812 -10.851562 5.125 -10.6875 C 4.988281 -10.53125 4.90625 -10.3125 4.875 -10.03125 L 4.140625 -3.953125 C 4.117188 -3.898438 4.109375 -3.828125 4.109375 -3.734375 C 4.109375 -3.523438 4.160156 -3.359375 4.265625 -3.234375 C 4.367188 -3.117188 4.503906 -3.0625 4.671875 -3.0625 Z M 4.671875 -3.0625 "/></g></g></g><g fill="#ff3847" fill-opacity="1"><g transform="translate(32.876307, 26.525004)"><g><path d="M 7.421875 -13.6875 C 7.429688 -13.78125 7.460938 -13.851562 7.515625 -13.90625 C 7.578125 -13.957031 7.65625 -13.984375 7.75 -13.984375 L 10.765625 -13.984375 C 10.859375 -13.984375 10.925781 -13.957031 10.96875 -13.90625 C 11.019531 -13.851562 11.039062 -13.78125 11.03125 -13.6875 L 9.375 -0.296875 C 9.363281 -0.203125 9.328125 -0.128906 9.265625 -0.078125 C 9.210938 -0.0234375 9.140625 0 9.046875 0 L 5.59375 0 C 5.4375 0 5.34375 -0.0859375 5.3125 -0.265625 L 4.5625 -6.390625 C 4.5625 -6.429688 4.546875 -6.453125 4.515625 -6.453125 C 4.484375 -6.453125 4.46875 -6.429688 4.46875 -6.390625 L 3.75 -0.296875 C 3.738281 -0.203125 3.703125 -0.128906 3.640625 -0.078125 C 3.585938 -0.0234375 3.519531 0 3.4375 0 L 0.40625 0 C 0.320312 0 0.253906 -0.0234375 0.203125 -0.078125 C 0.160156 -0.128906 0.144531 -0.203125 0.15625 -0.296875 L 1.796875 -13.6875 C 1.804688 -13.78125 1.84375 -13.851562 1.90625 -13.90625 C 1.96875 -13.957031 2.039062 -13.984375 2.125 -13.984375 L 5.53125 -13.984375 C 5.695312 -13.984375 5.789062 -13.898438 5.8125 -13.734375 L 6.59375 -7.546875 C 6.59375 -7.515625 6.601562 -7.503906 6.625 -7.515625 C 6.65625 -7.523438 6.675781 -7.546875 6.6875 -7.578125 Z M 7.421875 -13.6875 "/></g></g></g><g fill="#ff3847" fill-opacity="1"><g transform="translate(43.102309, 26.525004)"><g><path d="M 4.15625 0.15625 C 3.007812 0.15625 2.101562 -0.140625 1.4375 -0.734375 C 0.769531 -1.328125 0.4375 -2.113281 0.4375 -3.09375 C 0.4375 -3.1875 0.453125 -3.351562 0.484375 -3.59375 L 0.5625 -4.21875 C 0.570312 -4.3125 0.609375 -4.382812 0.671875 -4.4375 C 0.734375 -4.488281 0.800781 -4.515625 0.875 -4.515625 L 3.921875 -4.515625 C 3.992188 -4.515625 4.050781 -4.488281 4.09375 -4.4375 C 4.144531 -4.382812 4.164062 -4.3125 4.15625 -4.21875 L 4.109375 -3.78125 C 4.085938 -3.5625 4.113281 -3.382812 4.1875 -3.25 C 4.269531 -3.125 4.394531 -3.0625 4.5625 -3.0625 C 4.726562 -3.0625 4.867188 -3.132812 4.984375 -3.28125 C 5.109375 -3.425781 5.171875 -3.601562 5.171875 -3.8125 C 5.171875 -4.007812 5.070312 -4.210938 4.875 -4.421875 C 4.6875 -4.640625 4.320312 -4.972656 3.78125 -5.421875 C 3.25 -5.859375 2.804688 -6.242188 2.453125 -6.578125 C 2.109375 -6.921875 1.804688 -7.34375 1.546875 -7.84375 C 1.296875 -8.34375 1.171875 -8.910156 1.171875 -9.546875 C 1.171875 -9.671875 1.1875 -9.878906 1.21875 -10.171875 C 1.363281 -11.359375 1.851562 -12.316406 2.6875 -13.046875 C 3.53125 -13.785156 4.578125 -14.15625 5.828125 -14.15625 C 6.972656 -14.15625 7.875 -13.847656 8.53125 -13.234375 C 9.195312 -12.617188 9.53125 -11.789062 9.53125 -10.75 C 9.53125 -10.632812 9.519531 -10.441406 9.5 -10.171875 L 9.4375 -9.734375 C 9.414062 -9.640625 9.375 -9.566406 9.3125 -9.515625 C 9.257812 -9.460938 9.191406 -9.4375 9.109375 -9.4375 L 6.09375 -9.4375 C 6.007812 -9.4375 5.941406 -9.460938 5.890625 -9.515625 C 5.847656 -9.566406 5.835938 -9.640625 5.859375 -9.734375 L 5.921875 -10.25 C 5.929688 -10.445312 5.890625 -10.609375 5.796875 -10.734375 C 5.710938 -10.867188 5.59375 -10.9375 5.4375 -10.9375 C 5.25 -10.9375 5.09375 -10.851562 4.96875 -10.6875 C 4.851562 -10.53125 4.796875 -10.316406 4.796875 -10.046875 C 4.796875 -9.828125 4.890625 -9.597656 5.078125 -9.359375 C 5.265625 -9.117188 5.609375 -8.785156 6.109375 -8.359375 C 6.796875 -7.785156 7.316406 -7.320312 7.671875 -6.96875 C 8.035156 -6.613281 8.316406 -6.222656 8.515625 -5.796875 C 8.722656 -5.378906 8.828125 -4.90625 8.828125 -4.375 C 8.828125 -4.269531 8.816406 -4.082031 8.796875 -3.8125 C 8.628906 -2.601562 8.125 -1.640625 7.28125 -0.921875 C 6.4375 -0.203125 5.394531 0.15625 4.15625 0.15625 Z M 4.15625 0.15625 "/></g></g></g><g fill="#ff3847" fill-opacity="1"><g transform="translate(52.070035, 26.525004)"><g/></g></g><g fill="#ff3847" fill-opacity="1"><g transform="translate(55.944734, 26.525004)"><g><path d="M 4.15625 0.15625 C 3.007812 0.15625 2.101562 -0.140625 1.4375 -0.734375 C 0.769531 -1.328125 0.4375 -2.113281 0.4375 -3.09375 C 0.4375 -3.1875 0.453125 -3.351562 0.484375 -3.59375 L 0.5625 -4.21875 C 0.570312 -4.3125 0.609375 -4.382812 0.671875 -4.4375 C 0.734375 -4.488281 0.800781 -4.515625 0.875 -4.515625 L 3.921875 -4.515625 C 3.992188 -4.515625 4.050781 -4.488281 4.09375 -4.4375 C 4.144531 -4.382812 4.164062 -4.3125 4.15625 -4.21875 L 4.109375 -3.78125 C 4.085938 -3.5625 4.113281 -3.382812 4.1875 -3.25 C 4.269531 -3.125 4.394531 -3.0625 4.5625 -3.0625 C 4.726562 -3.0625 4.867188 -3.132812 4.984375 -3.28125 C 5.109375 -3.425781 5.171875 -3.601562 5.171875 -3.8125 C 5.171875 -4.007812 5.070312 -4.210938 4.875 -4.421875 C 4.6875 -4.640625 4.320312 -4.972656 3.78125 -5.421875 C 3.25 -5.859375 2.804688 -6.242188 2.453125 -6.578125 C 2.109375 -6.921875 1.804688 -7.34375 1.546875 -7.84375 C 1.296875 -8.34375 1.171875 -8.910156 1.171875 -9.546875 C 1.171875 -9.671875 1.1875 -9.878906 1.21875 -10.171875 C 1.363281 -11.359375 1.851562 -12.316406 2.6875 -13.046875 C 3.53125 -13.785156 4.578125 -14.15625 5.828125 -14.15625 C 6.972656 -14.15625 7.875 -13.847656 8.53125 -13.234375 C 9.195312 -12.617188 9.53125 -11.789062 9.53125 -10.75 C 9.53125 -10.632812 9.519531 -10.441406 9.5 -10.171875 L 9.4375 -9.734375 C 9.414062 -9.640625 9.375 -9.566406 9.3125 -9.515625 C 9.257812 -9.460938 9.191406 -9.4375 9.109375 -9.4375 L 6.09375 -9.4375 C 6.007812 -9.4375 5.941406 -9.460938 5.890625 -9.515625 C 5.847656 -9.566406 5.835938 -9.640625 5.859375 -9.734375 L 5.921875 -10.25 C 5.929688 -10.445312 5.890625 -10.609375 5.796875 -10.734375 C 5.710938 -10.867188 5.59375 -10.9375 5.4375 -10.9375 C 5.25 -10.9375 5.09375 -10.851562 4.96875 -10.6875 C 4.851562 -10.53125 4.796875 -10.316406 4.796875 -10.046875 C 4.796875 -9.828125 4.890625 -9.597656 5.078125 -9.359375 C 5.265625 -9.117188 5.609375 -8.785156 6.109375 -8.359375 C 6.796875 -7.785156 7.316406 -7.320312 7.671875 -6.96875 C 8.035156 -6.613281 8.316406 -6.222656 8.515625 -5.796875 C 8.722656 -5.378906 8.828125 -4.90625 8.828125 -4.375 C 8.828125 -4.269531 8.816406 -4.082031 8.796875 -3.8125 C 8.628906 -2.601562 8.125 -1.640625 7.28125 -0.921875 C 6.4375 -0.203125 5.394531 0.15625 4.15625 0.15625 Z M 4.15625 0.15625 "/></g></g></g><g fill="#ff3847" fill-opacity="1"><g transform="translate(64.912461, 26.525004)"><g><path d="M 10.375 -13.984375 C 10.445312 -13.984375 10.503906 -13.957031 10.546875 -13.90625 C 10.597656 -13.851562 10.617188 -13.78125 10.609375 -13.6875 L 10.296875 -11.078125 C 10.273438 -10.984375 10.238281 -10.90625 10.1875 -10.84375 C 10.132812 -10.789062 10.0625 -10.765625 9.96875 -10.765625 L 7.65625 -10.765625 C 7.582031 -10.765625 7.546875 -10.734375 7.546875 -10.671875 L 6.28125 -0.296875 C 6.257812 -0.203125 6.222656 -0.128906 6.171875 -0.078125 C 6.117188 -0.0234375 6.046875 0 5.953125 0 L 2.890625 0 C 2.804688 0 2.738281 -0.0234375 2.6875 -0.078125 C 2.644531 -0.128906 2.628906 -0.203125 2.640625 -0.296875 L 3.921875 -10.671875 C 3.921875 -10.734375 3.882812 -10.765625 3.8125 -10.765625 L 1.578125 -10.765625 C 1.484375 -10.765625 1.410156 -10.789062 1.359375 -10.84375 C 1.316406 -10.90625 1.300781 -10.984375 1.3125 -11.078125 L 1.640625 -13.6875 C 1.648438 -13.78125 1.6875 -13.851562 1.75 -13.90625 C 1.8125 -13.957031 1.890625 -13.984375 1.984375 -13.984375 Z M 10.375 -13.984375 "/></g></g></g><g fill="#ff3847" fill-opacity="1"><g transform="translate(74.579234, 26.525004)"><g><path d="M 4.25 0.15625 C 3.101562 0.15625 2.195312 -0.164062 1.53125 -0.8125 C 0.875 -1.46875 0.546875 -2.347656 0.546875 -3.453125 C 0.546875 -3.597656 0.554688 -3.832031 0.578125 -4.15625 L 1.765625 -13.6875 C 1.773438 -13.78125 1.804688 -13.851562 1.859375 -13.90625 C 1.921875 -13.957031 1.992188 -13.984375 2.078125 -13.984375 L 5.15625 -13.984375 C 5.238281 -13.984375 5.300781 -13.957031 5.34375 -13.90625 C 5.394531 -13.851562 5.410156 -13.78125 5.390625 -13.6875 L 4.203125 -3.796875 C 4.171875 -3.566406 4.191406 -3.382812 4.265625 -3.25 C 4.347656 -3.125 4.476562 -3.0625 4.65625 -3.0625 C 4.832031 -3.0625 4.972656 -3.125 5.078125 -3.25 C 5.191406 -3.382812 5.265625 -3.566406 5.296875 -3.796875 L 6.515625 -13.6875 C 6.523438 -13.78125 6.554688 -13.851562 6.609375 -13.90625 C 6.660156 -13.957031 6.734375 -13.984375 6.828125 -13.984375 L 9.890625 -13.984375 C 9.984375 -13.984375 10.050781 -13.957031 10.09375 -13.90625 C 10.144531 -13.851562 10.164062 -13.78125 10.15625 -13.6875 L 8.96875 -4.15625 C 8.863281 -3.300781 8.597656 -2.546875 8.171875 -1.890625 C 7.742188 -1.242188 7.191406 -0.738281 6.515625 -0.375 C 5.835938 -0.0195312 5.082031 0.15625 4.25 0.15625 Z M 4.25 0.15625 "/></g></g></g><g fill="#ff3847" fill-opacity="1"><g transform="translate(83.906464, 26.525004)"><g><path d="M 0.40625 0 C 0.320312 0 0.253906 -0.0234375 0.203125 -0.078125 C 0.160156 -0.128906 0.144531 -0.203125 0.15625 -0.296875 L 1.796875 -13.6875 C 1.804688 -13.78125 1.84375 -13.851562 1.90625 -13.90625 C 1.96875 -13.957031 2.039062 -13.984375 2.125 -13.984375 L 5.9375 -13.984375 C 7.125 -13.984375 8.066406 -13.671875 8.765625 -13.046875 C 9.460938 -12.429688 9.8125 -11.609375 9.8125 -10.578125 C 9.8125 -10.453125 9.796875 -10.257812 9.765625 -10 L 9.03125 -4 C 8.9375 -3.207031 8.671875 -2.507812 8.234375 -1.90625 C 7.804688 -1.300781 7.242188 -0.832031 6.546875 -0.5 C 5.847656 -0.164062 5.070312 0 4.21875 0 Z M 4.171875 -3.3125 C 4.148438 -3.25 4.175781 -3.21875 4.25 -3.21875 L 4.53125 -3.234375 C 4.75 -3.242188 4.941406 -3.34375 5.109375 -3.53125 C 5.273438 -3.71875 5.382812 -3.957031 5.4375 -4.25 L 6.09375 -9.75 L 6.109375 -9.96875 C 6.109375 -10.226562 6.046875 -10.425781 5.921875 -10.5625 C 5.804688 -10.695312 5.648438 -10.765625 5.453125 -10.765625 L 5.171875 -10.765625 C 5.109375 -10.765625 5.078125 -10.734375 5.078125 -10.671875 Z M 4.171875 -3.3125 "/></g></g></g><g fill="#ff3847" fill-opacity="1"><g transform="translate(93.273641, 26.525004)"><g><path d="M 0.40625 0 C 0.320312 0 0.253906 -0.0234375 0.203125 -0.078125 C 0.160156 -0.128906 0.144531 -0.203125 0.15625 -0.296875 L 1.796875 -13.6875 C 1.804688 -13.78125 1.84375 -13.851562 1.90625 -13.90625 C 1.96875 -13.957031 2.039062 -13.984375 2.125 -13.984375 L 5.203125 -13.984375 C 5.273438 -13.984375 5.332031 -13.957031 5.375 -13.90625 C 5.425781 -13.851562 5.445312 -13.78125 5.4375 -13.6875 L 3.796875 -0.296875 C 3.785156 -0.203125 3.75 -0.128906 3.6875 -0.078125 C 3.625 -0.0234375 3.554688 0 3.484375 0 Z M 0.40625 0 "/></g></g></g><g fill="#ff3847" fill-opacity="1"><g transform="translate(97.927269, 26.525004)"><g><path d="M 4.28125 0.15625 C 3.09375 0.15625 2.15625 -0.164062 1.46875 -0.8125 C 0.789062 -1.457031 0.453125 -2.332031 0.453125 -3.4375 C 0.453125 -3.570312 0.46875 -3.796875 0.5 -4.109375 L 1.21875 -9.875 C 1.375 -11.175781 1.890625 -12.210938 2.765625 -12.984375 C 3.640625 -13.765625 4.726562 -14.15625 6.03125 -14.15625 C 7.207031 -14.15625 8.140625 -13.828125 8.828125 -13.171875 C 9.515625 -12.523438 9.859375 -11.648438 9.859375 -10.546875 C 9.859375 -10.421875 9.84375 -10.195312 9.8125 -9.875 L 9.109375 -4.109375 C 8.953125 -2.804688 8.429688 -1.769531 7.546875 -1 C 6.671875 -0.226562 5.582031 0.15625 4.28125 0.15625 Z M 4.671875 -3.0625 C 4.867188 -3.0625 5.035156 -3.140625 5.171875 -3.296875 C 5.316406 -3.453125 5.410156 -3.671875 5.453125 -3.953125 L 6.1875 -10.03125 C 6.21875 -10.3125 6.1875 -10.53125 6.09375 -10.6875 C 6 -10.851562 5.851562 -10.9375 5.65625 -10.9375 C 5.4375 -10.9375 5.257812 -10.851562 5.125 -10.6875 C 4.988281 -10.53125 4.90625 -10.3125 4.875 -10.03125 L 4.140625 -3.953125 C 4.117188 -3.898438 4.109375 -3.828125 4.109375 -3.734375 C 4.109375 -3.523438 4.160156 -3.359375 4.265625 -3.234375 C 4.367188 -3.117188 4.503906 -3.0625 4.671875 -3.0625 Z M 4.671875 -3.0625 "/></g></g></g></svg>